<?xml version="1.0" encoding="utf-8"?>
<!-- Generator: Adobe Illustrator 23.0.2, SVG Export Plug-In . SVG Version: 6.00 Build 0)  -->
<svg version="1.1" id="Capa_1" xmlns="http://www.w3.org/2000/svg" xmlns:xlink="http://www.w3.org/1999/xlink" x="0px" y="0px"
	 viewBox="0 0 451.2 451.2" style="enable-background:new 0 0 451.2 451.2;" xml:space="preserve">
<style type="text/css">
	.st0{fill:#FFFFFF;}
</style>
<g id="Слой_2">
</g>
<path class="st0" d="M393.3,121l7.5-7.5c2.9-2.9,2.9-7.7,0-10.6l-3.6-3.6l19.7-19.7c2.9-2.9,2.9-7.7,0-10.6l-34.5-34.5
	c-1.4-1.4-3.3-2.2-5.3-2.2s-3.9,0.8-5.3,2.2L352,54.1l-3.6-3.6c-2.9-2.9-7.7-2.9-10.6,0l-7.5,7.5C259.5,4.4,174.1-13.8,105.9,10.7
	c-3.1,1.1-5.1,4.2-4.9,7.5c0.2,3.3,2.5,6.1,5.8,6.9c60,14,118.6,43.8,170,86.3l-4.5,4.5c-1.4,1.4-2.2,3.3-2.2,5.3s0.8,3.9,2.2,5.3
	l3.6,3.6L2.2,403.9c-2.9,2.9-2.9,7.7,0,10.6L36.7,449c1.5,1.5,3.4,2.2,5.3,2.2s3.8-0.7,5.3-2.2L321,175.3l3.6,3.6
	c1.5,1.5,3.4,2.2,5.3,2.2c1.9,0,3.8-0.7,5.3-2.2l4.5-4.5c42.5,51.4,72.3,110.1,86.3,170c0.8,3.2,3.6,5.6,6.9,5.8c0.1,0,0.3,0,0.4,0
	c3.1,0,6-2,7.1-5C465,277.2,446.9,191.8,393.3,121z"/>
<rect x="371.6" y="52.5" transform="matrix(0.7071 -0.7071 0.7071 0.7071 62.7167 290.2984)" class="st0" width="20.4" height="33.8"/>
<path class="st0" d="M137.3,17.9c24.8-4.4,51.7-3.6,79.2,2.5c35.8,7.9,71.3,24.6,103.1,48.3l-32.1,32.1
	C241.7,62.7,190.4,34.4,137.3,17.9z"/>
<rect x="-25.5" y="270" transform="matrix(0.7071 -0.7071 0.7071 0.7071 -154.7857 200.2058)" class="st0" width="379.6" height="33.8"/>
<rect x="297.7" y="85.1" transform="matrix(0.7071 -0.7071 0.7071 0.7071 17.4557 271.5484)" class="st0" width="77.6" height="59.1"/>
<path class="st0" d="M433.3,313.9c-16.5-53.1-44.8-104.4-82.9-150.2l32.1-32.1c23.7,31.8,40.4,67.3,48.3,103.1
	C437,262.3,437.8,289.2,433.3,313.9z"/>
<path d="M393.3,121l7.5-7.5c2.9-2.9,2.9-7.7,0-10.6l-3.6-3.6l19.7-19.7c2.9-2.9,2.9-7.7,0-10.6l-34.5-34.5c-1.4-1.4-3.3-2.2-5.3-2.2
	s-3.9,0.8-5.3,2.2L352,54.1l-3.6-3.6c-2.9-2.9-7.7-2.9-10.6,0l-7.5,7.5C259.5,4.4,174.1-13.8,105.9,10.7c-3.1,1.1-5.1,4.2-4.9,7.5
	c0.2,3.3,2.5,6.1,5.8,6.9c60,14,118.6,43.8,170,86.3l-4.5,4.5c-1.4,1.4-2.2,3.3-2.2,5.3s0.8,3.9,2.2,5.3l3.6,3.6L2.2,403.9
	c-2.9,2.9-2.9,7.7,0,10.6L36.7,449c1.5,1.5,3.4,2.2,5.3,2.2s3.8-0.7,5.3-2.2L321,175.3l3.6,3.6c1.5,1.5,3.4,2.2,5.3,2.2
	c1.9,0,3.8-0.7,5.3-2.2l4.5-4.5c42.5,51.4,72.3,110.1,86.3,170c0.8,3.2,3.6,5.6,6.9,5.8c0.1,0,0.3,0,0.4,0c3.1,0,6-2,7.1-5
	C465,277.2,446.9,191.8,393.3,121z M377,50.3L401,74.2l-14.4,14.4l-23.9-23.9L377,50.3z M137.3,17.9c24.8-4.4,51.7-3.6,79.2,2.5
	c35.8,7.9,71.3,24.6,103.1,48.3l-32.1,32.1C241.7,62.7,190.4,34.4,137.3,17.9z M42,433.1l-23.9-23.9l268.4-268.4l23.9,23.9L42,433.1
	z M330,163l-41.8-41.8L343,66.4l41.8,41.8L330,163z M433.3,313.9c-16.5-53.1-44.8-104.4-82.9-150.2l32.1-32.1
	c23.7,31.8,40.4,67.3,48.3,103.1C437,262.3,437.8,289.2,433.3,313.9z"/>
</svg>
